<svg width="8" height="8" viewBox="0 0 8 8" fill="none" xmlns="http://www.w3.org/2000/svg">
<g opacity="0.85">
<path d="M7.2 0H0.8C0.587827 0 0.384344 0.0842854 0.234315 0.234315C0.0842854 0.384344 0 0.587827 0 0.8V8L1.6 6.4H7.2C7.41217 6.4 7.61566 6.31571 7.76569 6.16569C7.91571 6.01566 8 5.81217 8 5.6V0.8C8 0.587827 7.91571 0.384344 7.76569 0.234315C7.61566 0.0842854 7.41217 0 7.2 0Z" fill="white"/>
<path d="M5.00522 2.83025C4.91242 2.88038 4.80497 2.89633 4.70161 2.87532C4.59826 2.85431 4.50556 2.79767 4.43969 2.7153C4.37383 2.63292 4.33898 2.53003 4.34123 2.42458C4.34348 2.31914 4.38269 2.21783 4.452 2.13834C4.52132 2.05885 4.61635 2.00622 4.72051 1.98964C4.82467 1.97305 4.93134 1.99357 5.02192 2.04761C5.11249 2.10165 5.18122 2.18578 5.2161 2.28531C5.25098 2.38485 5.2498 2.49347 5.21277 2.59223L5.94128 3.20352C6.03275 3.14956 6.14034 3.12968 6.24505 3.14739C6.34976 3.1651 6.44483 3.21925 6.51347 3.30028C6.58211 3.38131 6.61989 3.48399 6.62014 3.59019C6.62039 3.69638 6.58309 3.79924 6.51483 3.88059C6.44657 3.96194 6.35175 4.01654 6.24712 4.03473C6.1425 4.05293 6.03481 4.03355 5.9431 3.98002C5.85138 3.9265 5.78154 3.84227 5.74592 3.74223C5.7103 3.64219 5.7112 3.53278 5.74845 3.43333L5.38419 3.12769C5.37575 3.2843 5.31841 3.43944 5.20985 3.56882L4.82417 4.02845C4.76069 4.10406 4.72384 4.19844 4.71929 4.29706C4.71473 4.39568 4.74274 4.49306 4.79899 4.57419C4.8922 4.52379 5.00021 4.5079 5.10399 4.5293C5.20778 4.55071 5.30068 4.60804 5.36635 4.6912C5.43202 4.77437 5.46625 4.87803 5.46301 4.98395C5.45976 5.08987 5.41926 5.19125 5.34862 5.27024C5.27799 5.34923 5.18175 5.40077 5.07685 5.41578C4.97195 5.4308 4.86512 5.40833 4.77516 5.35232C4.6852 5.29632 4.61788 5.21037 4.58506 5.10962C4.55223 5.00886 4.55601 4.89976 4.59571 4.80151C4.48173 4.66647 4.41909 4.49552 4.41885 4.31881C4.4186 4.1421 4.48076 3.97097 4.59436 3.83562L4.98003 3.37599C5.04351 3.30038 5.08037 3.206 5.08492 3.10738C5.08947 3.00876 5.06146 2.91138 5.00522 2.83025Z" fill="black"/>
</g>
</svg>
